<svg width="45" height="45" viewBox="0 0 45 45" fill="none" xmlns="http://www.w3.org/2000/svg">
<path d="M4.6875 22.5C4.6875 14.1037 4.6875 9.90375 7.29563 7.29563C9.90375 4.6875 14.1019 4.6875 22.5 4.6875C30.8963 4.6875 35.0962 4.6875 37.7044 7.29563C40.3125 9.90375 40.3125 14.1019 40.3125 22.5C40.3125 30.8963 40.3125 35.0962 37.7044 37.7044C35.0962 40.3125 30.8981 40.3125 22.5 40.3125C14.1037 40.3125 9.90375 40.3125 7.29563 37.7044C4.6875 35.0962 4.6875 30.8981 4.6875 22.5Z" stroke="#1E1E1E" stroke-width="1.5" stroke-linecap="round" stroke-linejoin="round"/>
<path d="M11.25 25.3125L14.0625 16.875L17.5781 25.3125M11.25 25.3125L10.3125 28.125M11.25 25.3125H17.5781M17.5781 25.3125L18.75 28.125M23.4375 22.5V18.1875C23.4375 17.8387 23.4375 17.6625 23.4825 17.5219C23.5287 17.3813 23.6074 17.2537 23.7124 17.1494C23.8173 17.0451 23.9454 16.9672 24.0862 16.9219C24.225 16.875 24.3994 16.875 24.75 16.875H27.1875C27.9334 16.875 28.6488 17.1713 29.1762 17.6988C29.7037 18.2262 30 18.9416 30 19.6875C30 20.4334 29.7037 21.1488 29.1762 21.6762C28.6488 22.2037 27.9334 22.5 27.1875 22.5H23.4375ZM23.4375 22.5V28.125M34.6875 16.875V28.125" stroke="#1E1E1E" stroke-width="1.5" stroke-linecap="round" stroke-linejoin="round"/>
</svg>
