<svg width="45" height="45" viewBox="0 0 45 45" fill="none" xmlns="http://www.w3.org/2000/svg">
<path d="M6.18 38.6286L18.1125 26.6961M33.1388 21.3899L29.5669 32.1055C29.5099 32.2773 29.4123 32.4327 29.2824 32.5587C29.1525 32.6847 28.9941 32.7775 28.8206 32.8293L6.92438 39.3374C6.72711 39.396 6.51755 39.3993 6.31851 39.3471C6.11947 39.2948 5.93856 39.189 5.79549 39.0411C5.65242 38.8932 5.55265 38.7089 5.50705 38.5082C5.46146 38.3075 5.47177 38.0982 5.53688 37.903L12.6469 16.5768C12.6978 16.4236 12.7811 16.2833 12.8911 16.1652C13.0011 16.0471 13.1352 15.9541 13.2844 15.8924L23.385 11.7336C23.5903 11.6488 23.8162 11.6267 24.0341 11.6701C24.252 11.7135 24.4522 11.8204 24.6094 11.9774L32.8669 20.2386C33.0146 20.3864 33.1183 20.5723 33.1663 20.7756C33.2144 20.979 33.2048 21.1917 33.1388 21.3899Z" stroke="#1E1E1E" stroke-width="1.5" stroke-linecap="round" stroke-linejoin="round"/>
<path d="M33.36 20.7299L38.6625 15.4255C39.3655 14.7223 39.7604 13.7687 39.7604 12.7743C39.7604 11.7799 39.3655 10.8263 38.6625 10.123L34.6875 6.1443C34.3393 5.79592 33.9258 5.51956 33.4707 5.33101C33.0157 5.14246 32.5279 5.04541 32.0353 5.04541C31.5427 5.04541 31.055 5.14246 30.5999 5.33101C30.1448 5.51956 29.7314 5.79592 29.3831 6.1443L24.0806 11.4487M22.0894 22.7174C21.8281 22.4563 21.518 22.2492 21.1767 22.1079C20.8354 21.9666 20.4696 21.894 20.1003 21.8941C19.7309 21.8941 19.3652 21.967 19.0239 22.1084C18.6827 22.2499 18.3727 22.4571 18.1116 22.7184C17.8504 22.9796 17.6433 23.2897 17.5021 23.631C17.3608 23.9723 17.2881 24.3381 17.2882 24.7075C17.2883 25.0768 17.3611 25.4426 17.5026 25.7838C17.644 26.125 17.8513 26.435 18.1125 26.6962C18.6401 27.2235 19.3556 27.5197 20.1016 27.5195C20.8476 27.5194 21.5629 27.2228 22.0903 26.6952C22.6177 26.1676 22.9139 25.4521 22.9137 24.7061C22.9135 23.9601 22.617 23.2448 22.0894 22.7174Z" stroke="#1E1E1E" stroke-width="1.5" stroke-linecap="round" stroke-linejoin="round"/>
</svg>
