<svg width="45" height="45" viewBox="0 0 45 45" fill="none" xmlns="http://www.w3.org/2000/svg">
<path d="M4.6875 15.3506C4.8825 11.4131 5.46562 8.95687 7.21312 7.21312C8.95687 5.46562 11.4131 4.8825 15.3506 4.6875M40.3125 15.3506C40.1175 11.4131 39.5344 8.95687 37.7869 7.21312C36.0431 5.46562 33.5869 4.8825 29.6494 4.6875M29.6494 40.3125C33.5869 40.1175 36.0431 39.5344 37.7869 37.7869C39.5344 36.0431 40.1175 33.5869 40.3125 29.6494M15.3506 40.3125C11.4131 40.1175 8.95687 39.5344 7.21312 37.7869C5.46562 36.0431 4.8825 33.5869 4.6875 29.6494M32.8125 31.875L32.4338 30.2831C32.2797 29.6372 31.9569 29.0437 31.4983 28.5634C31.0398 28.0831 30.4619 27.7331 29.8238 27.5494L25.3125 26.2481V23.4975C26.9925 22.3631 28.125 20.2425 28.125 17.8125C28.125 14.1881 25.605 11.25 22.5 11.25C19.3931 11.25 16.875 14.1881 16.875 17.8125C16.875 20.2425 18.0056 22.3631 19.6875 23.4975V26.2481L15.2044 27.5606C14.5853 27.7419 14.0235 28.0797 13.5732 28.5415C13.1229 29.0033 12.7993 29.5735 12.6337 30.1969L12.1875 31.875" stroke="#1E1E1E" stroke-width="1.5" stroke-linecap="round" stroke-linejoin="round"/>
</svg>
