<svg width="45" height="45" viewBox="0 0 45 45" fill="none" xmlns="http://www.w3.org/2000/svg">
<path d="M1.875 37.5V35.625C1.875 32.144 3.25781 28.8056 5.71922 26.3442C8.18064 23.8828 11.519 22.5 15 22.5C18.481 22.5 21.8194 23.8828 24.2808 26.3442C26.7422 28.8056 28.125 32.144 28.125 35.625V37.5" stroke="#1E1E1E" stroke-width="1.5" stroke-linecap="round"/>
<path d="M24.375 26.25C24.375 23.7636 25.3627 21.379 27.1209 19.6209C28.879 17.8627 31.2636 16.875 33.75 16.875C34.9811 16.875 36.2002 17.1175 37.3377 17.5886C38.4751 18.0598 39.5086 18.7503 40.3791 19.6209C41.2497 20.4914 41.9402 21.5249 42.4114 22.6623C42.8825 23.7998 43.125 25.0189 43.125 26.25V27.1875" stroke="#1E1E1E" stroke-width="1.5" stroke-linecap="round"/>
<path d="M15 22.5C16.9891 22.5 18.8968 21.7098 20.3033 20.3033C21.7098 18.8968 22.5 16.9891 22.5 15C22.5 13.0109 21.7098 11.1032 20.3033 9.6967C18.8968 8.29018 16.9891 7.5 15 7.5C13.0109 7.5 11.1032 8.29018 9.6967 9.6967C8.29018 11.1032 7.5 13.0109 7.5 15C7.5 16.9891 8.29018 18.8968 9.6967 20.3033C11.1032 21.7098 13.0109 22.5 15 22.5ZM33.75 16.875C35.2418 16.875 36.6726 16.2824 37.7275 15.2275C38.7824 14.1726 39.375 12.7418 39.375 11.25C39.375 9.75816 38.7824 8.32742 37.7275 7.27252C36.6726 6.21763 35.2418 5.625 33.75 5.625C32.2582 5.625 30.8274 6.21763 29.7725 7.27252C28.7176 8.32742 28.125 9.75816 28.125 11.25C28.125 12.7418 28.7176 14.1726 29.7725 15.2275C30.8274 16.2824 32.2582 16.875 33.75 16.875Z" stroke="#1E1E1E" stroke-width="1.5" stroke-linecap="round" stroke-linejoin="round"/>
</svg>
